<?xml version="1.0" encoding="UTF-8"?>
<svg width="217px" height="60px" viewBox="0 0 217 60" version="1.1" xmlns="http://www.w3.org/2000/svg" xmlns:xlink="http://www.w3.org/1999/xlink">
    <!-- Generator: Sketch 59.1 (86144) - https://sketch.com -->
    <title>viads_logo-dark</title>
    <desc>Created with Sketch.</desc>
    <defs>
        <linearGradient x1="79.2797502%" y1="55.8472425%" x2="2.85239561%" y2="16.728413%" id="linearGradient-1">
            <stop stop-color="#1018FF" offset="0%"></stop>
            <stop stop-color="#57E1FF" offset="100%"></stop>
        </linearGradient>
        <linearGradient x1="-0.0194717712%" y1="50.0247019%" x2="99.9992281%" y2="50.0247019%" id="linearGradient-2">
            <stop stop-color="#1018FF" offset="0%"></stop>
            <stop stop-color="#57E1FF" offset="100%"></stop>
        </linearGradient>
    </defs>
    <g id="viads_logo-dark" stroke="none" stroke-width="1" fill="none" fill-rule="evenodd">
        <g id="logo" fill-rule="nonzero">
            <g id="Group-2" transform="translate(72.750000, 8.250000)" fill="#18192B">
                <polygon id="Path" points="29.016 11.439 15.1218 42.8544 14.0058 42.8544 1.0658141e-14 11.439 4.8546 11.439 14.508 33.4242 24.1614 11.439"></polygon>
                <path d="M39.744,11.439 L39.744,41.85 L35.1126,41.85 L35.1126,11.439 L39.744,11.439 Z M37.4004,1.0658141e-14 C38.404805,1.0658141e-14 39.2510966,0.344096559 39.9393,1.0323 C40.6275034,1.72050344 40.9716,2.55749507 40.9716,3.5433 C40.9716,4.52910493 40.6275034,5.36609656 39.9393,6.0543 C39.2510966,6.74250344 38.4141049,7.0866 37.4283,7.0866 C36.4424951,7.0866 35.6055034,6.73320353 34.9173,6.0264 C34.2290966,5.31959647 33.885,4.49190474 33.885,3.5433 C33.885,2.59469526 34.2290966,1.76700353 34.9173,1.0602 C35.6055034,0.353396466 36.4331952,1.0658141e-14 37.4004,1.0658141e-14 Z" id="Combined-Shape"></path>
                <path d="M62.3223,10.6578 C66.7677222,10.6578 70.4969849,12.461982 73.5102,16.0704 L73.5102,11.439 L78.03,11.439 L78.03,41.85 L73.5102,41.85 L73.5102,37.386 C70.1993834,41.0316182 66.3864216,42.8544 62.0712,42.8544 C57.7559784,42.8544 54.0639153,41.2641159 50.9949,38.0835 C47.9258847,34.9028841 46.3914,31.108522 46.3914,26.7003 C46.3914,22.292078 47.9351846,18.5163157 51.0228,15.3729 C54.1104154,12.2294843 57.8768778,10.6578 62.3223,10.6578 Z M62.3781,15.1218 C59.1974841,15.1218 56.509811,16.2842884 54.315,18.6093 C52.120189,20.9343116 51.0228,23.6777842 51.0228,26.8398 C51.0228,30.0018158 52.1387888,32.7452884 54.3708,35.0703 C56.6028112,37.3953116 59.2811844,38.5578 62.406,38.5578 C65.4936154,38.5578 68.1533888,37.4418112 70.3854,35.2098 C72.6174112,32.9777888 73.7334,30.1971166 73.7334,26.8677 C73.7334,23.5382834 72.636011,20.7483113 70.4412,18.4977 C68.246389,16.2470887 65.5587159,15.1218 62.3781,15.1218 Z" id="Combined-Shape"></path>
                <path d="M116.1972,9.9475983e-14 L116.1972,41.85 L111.6774,41.85 L111.6774,37.386 C108.366583,41.0316182 104.544322,42.8544 100.2105,42.8544 C95.8766783,42.8544 92.1846153,41.2734158 89.1342,38.1114 C86.0837847,34.9493842 84.5586,31.1550221 84.5586,26.7282 C84.5586,22.3013779 86.1023846,18.5163157 89.19,15.3729 C92.2776154,12.2294843 96.0440778,10.6578 100.4895,10.6578 C104.934922,10.6578 108.664185,12.461982 111.6774,16.0704 L111.6774,9.9475983e-14 L116.1972,9.9475983e-14 Z M100.6011,15.1218 C97.3460837,15.1218 94.6305109,16.2842884 92.4543,18.6093 C90.2780891,20.9343116 89.19,23.6684843 89.19,26.8119 C89.19,29.9553157 90.3059888,32.6987883 92.538,35.0424 C94.7700112,37.3860117 97.4483844,38.5578 100.5732,38.5578 C103.512015,38.5578 106.134588,37.460411 108.441,35.2656 C110.747412,33.070789 111.9006,30.2901168 111.9006,26.9235 C111.9006,23.5568832 110.831111,20.7483113 108.6921,18.4977 C106.553089,16.2470887 103.856116,15.1218 100.6011,15.1218 Z" id="Combined-Shape"></path>
                <path d="M143.7192,15.0102 L140.301887,18.0792 C137.765754,16.0331898 135.444584,15.0102 133.338304,15.0102 C132.005761,15.0102 130.88816,15.3728964 129.985469,16.0983 C129.082778,16.8237036 128.631439,17.7164947 128.631439,18.7767 C128.631439,19.8369053 129.136508,20.766896 130.146663,21.5667 C131.103651,22.3244091 132.764693,23.249042 135.129834,24.3406239 L135.530543,24.5241 C138.109661,25.6959059 140.0977,26.9885929 141.494722,28.4022 C142.891744,29.8158071 143.590245,31.5455898 143.590245,33.5916 C143.590245,36.195613 142.547867,38.3903911 140.463081,40.176 C138.378294,41.9616089 135.809962,42.8544 132.758006,42.8544 C128.502462,42.8544 124.956229,41.2920156 122.1192,38.1672 L125.472036,34.9308 C127.793241,37.2744117 130.157397,38.4462 132.564573,38.4462 C134.198014,38.4462 135.595015,37.9812047 136.755618,37.0512 C137.916221,36.1211954 138.496513,35.0331062 138.496513,33.7869 C138.496513,32.5406938 137.969952,31.4991042 136.916812,30.6621 C135.863672,29.8250958 134.058317,28.8486056 131.500693,27.7326 C128.943068,26.6165944 127.008759,25.3797068 125.697707,24.0219 C124.386656,22.6640932 123.73114,20.8785111 123.73114,18.6651 C123.73114,16.4516889 124.666056,14.5638078 126.535916,13.0014 C128.405777,11.4389922 130.877394,10.6578 133.950842,10.6578 C137.02429,10.6578 140.280377,12.1085855 143.7192,15.0102 Z" id="Path"></path>
            </g>
            <g id="icon">
                <path d="M1.22570562,25.1410045 L19.5884963,55.9223999 C22.6582638,61.0851906 30.1373335,61.0293766 33.151287,55.8386789 L52.8536126,21.7363533 C55.2257056,17.6340278 52.2954731,12.4712371 47.52338,12.4433301 L8.70477539,12.1642603 C1.979194,12.0805394 -2.20685252,19.3921673 1.22570562,25.1410045 Z" id="Path" fill="url(#linearGradient-1)"></path>
                <path d="M50.5931475,13.1410045 L28.351287,0.722399859 C24.6117521,-1.3706234 20.0350079,1.33635335 20.0350079,5.60612079 L20.0350079,33.5968185 C20.0350079,36.9735626 23.6908219,39.0944929 26.6210545,37.4200743 L50.6210545,23.8014696 C54.751287,21.4572836 54.751287,15.4851906 50.5931475,13.1410045 Z" id="Path" fill="url(#linearGradient-2)"></path>
            </g>
        </g>
    </g>
</svg>